<?xml version="1.0" encoding="utf-8"?>
<!-- Generator: Adobe Illustrator 27.0.0, SVG Export Plug-In . SVG Version: 6.00 Build 0)  -->
<svg version="1.1" id="Layer_1" xmlns="http://www.w3.org/2000/svg" xmlns:xlink="http://www.w3.org/1999/xlink" x="0px" y="0px"
	 viewBox="0 0 122.9 35" style="enable-background:new 0 0 122.9 35;" xml:space="preserve">
<style type="text/css">
	.st0{fill-rule:evenodd;clip-rule:evenodd;fill:#FFFFFF;}
</style>
<g>
	<path class="st0" d="M99.4,13.6c5.9,0,10.7,4.8,10.7,10.7S105.3,35,99.4,35s-10.7-4.8-10.7-10.7S93.5,13.6,99.4,13.6L99.4,13.6z
		 M79.1,5c-0.6,1.3-1.1,2.7-1.4,4.2c-0.8,2.6,0.4,3.1,3.2,2.1c2.1-1.2,4.1-2.5,6.2-3.7c1.1-0.7,1.6-1.5,1.4-2.2
		C88,4,85.3,3.2,83.1,2.8C80.2,2.2,80.4,2.1,79.1,5L79.1,5z M23.9,19.3c2.8,0,5,2.2,5,5c0,2.8-2.2,5-5,5c-2.8,0-5-2.2-5-5
		S21.1,19.3,23.9,19.3L23.9,19.3z M99.4,19.3c2.8,0,5,2.2,5,5c0,2.8-2.2,5-5,5c-2.8,0-5-2.2-5-5S96.7,19.3,99.4,19.3L99.4,19.3z
		 M46.1,12.5c2.8-3,6-4.9,9.7-6.8c8.1-4.1,13.1-3.6,21.7-3.6l-2.9,7.5c-1.2,1.6-2.6,2.7-4.7,2.8H46.1L46.1,12.5z M23.9,13.6
		c5.9,0,10.7,4.8,10.7,10.7S29.8,35,23.9,35s-10.7-4.8-10.7-10.7C13.1,18.4,17.9,13.6,23.9,13.6L23.9,13.6z M40.8,10.3
		c3.5-2.2,7.3-4.2,11.6-5.8c12.9-5.1,22.8-6,36.3-1.9c4.1,1.6,8.2,3.1,12.2,4.1c4,1,21.5,1.9,21.9,4.8l-4.3,5.2
		c1.6,1.4,2.8,3,3.3,5.6c-0.1,1.6-0.6,3-1.3,4c-1.3,1.9-5.1,3.8-7.1,2.7c-0.7-0.4-1-1-1-2.2c0.1-23.9-28.8-21.2-26.6,2.8H35.5
		C44.8,5.5,5,5.4,12.1,28.7c-2.5,2.7-8.3-1.4-12.1-10c1-1,2.2-2,3.4-2.9c-0.1-0.1,0.1,0.2-0.2-0.2s0.5-1.9,2-2.7
		C13,8.4,31.7,8.5,40.8,10.3L40.8,10.3z"/>
</g>
</svg>
